Force Plate Walk 7
version=1
nRows=37
nColumns=19
inDegrees=yes
endheader
time	ground_force1_vx	ground_force1_vy	ground_force1_vz	ground_force1_px	ground_force1_py	ground_force1_pz	ground_torque1_x	ground_torque1_y	ground_torque1_z	ground_force2_vx	ground_force2_vy	ground_force2_vz	ground_force2_px	ground_force2_py	ground_force2_pz	ground_torque2_x	ground_torque2_y	ground_torque2_z
4.722000	-150.609589	609.324036	17.449959	0.622061	0.000000	-0.225587	0.000001	0.079292	0.000006	-13.260497	212.290848	8.203835	0.050984	0.000000	-0.096911	0.000000	-0.848236	0.000000	
4.723000	-150.223297	605.265076	17.625935	0.622004	0.000000	-0.225769	0.000008	0.179422	-0.000012	-10.485232	219.139420	8.333002	0.052796	0.000000	-0.099351	0.000000	-0.791547	0.000002	
4.724000	-150.784576	599.474304	16.586433	0.621689	0.000000	-0.225931	0.000006	0.019221	-0.000011	-8.760443	221.779709	6.968727	0.050703	0.000000	-0.098363	-0.000000	-1.663527	0.000002	
4.725000	-151.702209	592.887695	16.080444	0.620788	0.000000	-0.225685	0.000013	0.138928	0.000034	-4.789901	221.454575	6.875857	0.048616	0.000000	-0.097288	-0.000002	-1.616576	0.000003	
4.726000	-150.490616	588.805847	16.875130	0.620847	0.000000	-0.225925	0.000005	0.405351	0.000022	-1.110218	216.954147	8.365586	0.042903	0.000000	-0.090956	-0.000001	-1.171883	-0.000001	
4.727000	-150.227539	582.963013	16.458717	0.620811	0.000000	-0.225794	-0.000000	0.303685	-0.000013	1.025773	214.388870	8.245837	0.036624	0.000000	-0.087529	-0.000002	-1.799110	-0.000001	
4.728000	-151.310913	579.975342	15.297482	0.620964	0.000000	-0.226182	0.000009	0.301656	0.000006	3.635500	215.983826	7.682215	0.035938	0.000000	-0.086449	-0.000001	-2.041685	-0.000000	
4.729000	-151.252014	574.932983	15.182249	0.620823	0.000000	-0.225893	0.000002	0.340291	0.000005	8.229592	220.419403	8.125629	0.036379	0.000000	-0.088464	0.000001	-1.456218	0.000003	
4.730000	-150.729507	568.894348	14.698204	0.620490	0.000000	-0.225861	0.000004	0.251777	0.000018	12.339786	226.891724	9.204369	0.038852	0.000000	-0.091414	0.000001	-1.477980	0.000000	
4.731000	-150.590576	563.226807	14.886925	0.620000	0.000000	-0.225872	0.000008	0.439461	0.000025	15.395523	233.870468	9.880857	0.041984	0.000000	-0.094575	-0.000001	-1.549891	-0.000002	
4.732000	-151.036392	557.990784	14.072786	0.620066	0.000000	-0.226272	0.000001	0.476710	0.000015	18.861784	239.044556	9.698491	0.042954	0.000000	-0.095828	-0.000000	-1.370147	0.000001	
4.733000	-150.296295	549.247803	14.223006	0.618986	0.000000	-0.225732	0.000011	0.470455	0.000035	22.276192	241.780838	10.095960	0.040709	0.000000	-0.095254	-0.000001	-1.125947	-0.000001	
4.734000	-149.548599	543.234253	14.028718	0.619060	0.000000	-0.225866	0.000004	0.485350	0.000037	23.828312	242.513901	11.367663	0.038128	0.000000	-0.093804	0.000001	-1.120504	0.000000	
4.735000	-149.788010	537.817566	13.690622	0.618953	0.000000	-0.225898	0.000004	0.541875	0.000023	24.907482	238.446640	10.622211	0.030578	0.000000	-0.089455	0.000001	-1.098262	0.000003	
4.736000	-149.712646	531.405823	13.505149	0.618324	0.000000	-0.225976	0.000004	0.606033	0.000020	27.796053	237.339340	10.111838	0.026625	0.000000	-0.086125	-0.000000	-0.941264	0.000001	
4.737000	-148.830032	525.272766	13.244655	0.617998	0.000000	-0.226116	0.000008	0.688697	0.000016	30.352383	241.107437	11.097218	0.026516	0.000000	-0.086950	0.000000	-0.747694	-0.000000	
4.738000	-148.288467	518.219543	13.173629	0.618013	0.000000	-0.226028	0.000007	0.596223	0.000009	31.397936	248.159225	11.336555	0.029069	0.000000	-0.089285	0.000000	-0.618318	0.000004	
4.739000	-147.940079	512.015686	12.069110	0.617592	0.000000	-0.225998	0.000007	0.601121	-0.000004	33.419193	259.177277	11.489118	0.033483	0.000000	-0.094144	-0.000002	-0.734935	-0.000002	
4.740000	-147.649963	503.993622	11.889504	0.616950	0.000000	-0.226295	0.000011	0.669491	0.000020	36.097446	265.353333	11.220435	0.033850	0.000000	-0.095577	0.000001	-0.706796	-0.000000	
4.741000	-146.109924	498.252533	11.679744	0.616963	0.000000	-0.225935	0.000005	0.558305	0.000004	36.190254	268.139130	11.529847	0.030862	0.000000	-0.093151	0.000004	-0.401331	-0.000001	
4.742000	-145.625153	492.000549	11.238092	0.616697	0.000000	-0.226527	0.000004	0.769221	0.000007	34.175148	270.329773	12.236973	0.026419	0.000000	-0.090029	0.000002	-0.791060	0.000000	
4.743000	-144.787415	483.294952	10.958076	0.615486	0.000000	-0.226471	0.000004	0.841647	0.000038	33.015400	272.958344	11.974887	0.023356	0.000000	-0.088080	0.000001	-1.497804	-0.000001	
4.744000	-143.725357	477.558380	10.627522	0.615516	0.000000	-0.225900	0.000009	0.610767	0.000006	34.634846	278.256500	12.686149	0.024401	0.000000	-0.088212	-0.000000	-1.181883	0.000000	
4.745000	-142.992157	471.051300	10.692320	0.615424	0.000000	-0.226612	0.000005	0.842188	0.000009	35.336346	288.202240	12.310122	0.026260	0.000000	-0.090386	0.000001	-1.565739	-0.000003	
4.746000	-142.135757	463.624176	10.477054	0.615109	0.000000	-0.226550	0.000004	0.911090	0.000021	36.019348	298.466156	12.027562	0.029006	0.000000	-0.092477	0.000003	-1.924456	-0.000001	
4.747000	-140.836380	457.241211	9.858064	0.614994	0.000000	-0.226742	0.000011	0.930430	0.000034	37.531834	307.602051	11.913025	0.033358	0.000000	-0.094613	0.000001	-1.974859	-0.000002	
4.748000	-138.975739	451.014832	9.476958	0.614859	0.000000	-0.226616	0.000006	0.811097	0.000008	37.747391	310.312073	12.414360	0.031851	0.000000	-0.093768	0.000002	-2.296609	-0.000005	
4.749000	-137.567123	442.572205	8.992548	0.614123	0.000000	-0.226551	0.000006	0.912813	-0.000002	37.423069	310.999023	12.342745	0.030246	0.000000	-0.090428	0.000001	-2.433058	-0.000003	
4.750000	-136.562088	435.585083	8.174257	0.613753	0.000000	-0.226598	0.000003	0.918774	-0.000005	38.004070	311.207092	10.345873	0.028130	0.000000	-0.089029	0.000001	-2.832908	-0.000007	
4.751000	-135.441605	425.424988	7.306505	0.612138	0.000000	-0.226395	0.000005	0.806400	0.000021	39.514370	314.762573	10.222463	0.028377	0.000000	-0.088734	-0.000000	-3.061509	-0.000004	
4.752000	-133.768341	418.361267	7.049133	0.612720	0.000000	-0.226669	0.000006	0.790487	0.000012	39.981865	318.705688	11.002050	0.029238	0.000000	-0.089151	0.000003	-2.984343	-0.000007	
4.753000	-132.796722	411.870636	7.070576	0.612941	0.000000	-0.226915	0.000002	0.836067	0.000029	40.947239	323.060150	10.245038	0.029258	0.000000	-0.090531	0.000003	-3.080827	-0.000007	
4.754000	-131.011230	404.199493	6.178936	0.612539	0.000000	-0.226962	0.000004	0.849251	0.000017	44.278469	328.568878	9.167789	0.031125	0.000000	-0.091180	0.000004	-3.330578	-0.000002	
4.755000	-129.403687	393.910309	5.669226	0.611167	0.000000	-0.226613	0.000004	0.769840	0.000010	45.733688	331.302826	9.624149	0.030784	0.000000	-0.091708	0.000005	-3.339177	-0.000003	
4.756000	-128.068054	384.570648	5.698873	0.609945	0.000000	-0.226681	0.000006	0.754274	0.000019	46.440269	332.214874	9.183346	0.029955	0.000000	-0.091323	0.000001	-3.200834	-0.000002	
4.757000	-127.071297	374.741821	5.072569	0.609184	0.000000	-0.227181	0.000004	0.866872	-0.000010	48.998402	330.338196	7.666613	0.027248	0.000000	-0.088700	0.000006	-3.299421	-0.000004	
4.758000	-125.988899	366.982361	4.583445	0.609494	0.000000	-0.227606	0.000002	0.798755	-0.000008	51.240646	327.715668	7.090756	0.023498	0.000000	-0.087156	-0.000001	-3.279198	-0.000005	
